<svg xmlns="http://www.w3.org/2000/svg" xmlns:xlink="http://www.w3.org/1999/xlink" viewBox="0 0 436.24 436.24"><defs><style>.a{fill:none;}.b{clip-path:url(#a);}.c{fill:#005195;stroke:#fff;stroke-miterlimit:10;stroke-width:6px;}.d{fill:#fff;}</style><clipPath id="a" transform="translate(97.96 97.18)"><path class="a" d="M165.93,6.82V29.55H75V6.82H52.28V29.55H40.92A22.65,22.65,0,0,0,18.18,52.28V211.4a22.74,22.74,0,0,0,22.74,22.73H200a22.73,22.73,0,0,0,22.73-22.73V52.28A22.72,22.72,0,0,0,200,29.55H188.66V6.82"/></clipPath></defs><title>calendar-cyke</title><path class="a" d="M-8.91-5.69v252.5H250.27V-5.69ZM188.6,189.67H48.6v-110h140Z" transform="translate(97.96 97.18)"/><g class="b"><rect x="-29.79" y="-37.59" width="299.89" height="317.04" transform="translate(47.64 217.57) rotate(-45)"/><rect class="c" x="99.89" y="-54.57" width="49.7" height="398.38" transform="translate(32.24 227.75) rotate(-45)"/></g><path class="d" d="M188.66,6.82V29.55H200a22.72,22.72,0,0,1,22.73,22.73V211.4A22.73,22.73,0,0,1,200,234.13H40.92A22.74,22.74,0,0,1,18.18,211.4V52.28A22.65,22.65,0,0,1,40.92,29.55H52.28V6.82H75V29.55h90.92V6.82h22.73M195.48,0H159.11V22.73H81.83V0H45.46V22.73H40.92A29.58,29.58,0,0,0,11.37,52.28V211.4a29.57,29.57,0,0,0,29.55,29.54H200a29.58,29.58,0,0,0,29.55-29.54V52.28A29.59,29.59,0,0,0,200,22.73h-4.55V0Z" transform="translate(97.96 97.18)"/></svg>